<?xml version="1.0" standalone="no"?>
<!DOCTYPE svg PUBLIC "-//W3C//DTD SVG 20010904//EN"
 "http://www.w3.org/TR/2001/REC-SVG-20010904/DTD/svg10.dtd">
<svg version="1.0" xmlns="http://www.w3.org/2000/svg"
 width="981.000000pt" height="981.000000pt" viewBox="0 0 981.000000 981.000000"
 preserveAspectRatio="xMidYMid meet">

<g transform="translate(0.000000,981.000000) scale(0.100000,-0.100000)"
fill="#000000" stroke="none">
<path d="M2033 9795 c-155 -42 -271 -150 -323 -299 -13 -37 -22 -100 -26 -176
l-7 -119 -586 -3 -586 -3 -80 -27 c-206 -70 -367 -248 -410 -453 -13 -61 -15
-596 -15 -4116 0 -3966 0 -4047 19 -4121 56 -217 199 -368 421 -444 54 -19
167 -19 4460 -19 4279 0 4407 1 4460 19 205 69 334 196 413 403 l22 58 3 4075
c3 4532 9 4144 -65 4291 -41 82 -130 182 -211 235 -31 21 -95 52 -142 68 l-85
31 -587 3 -588 3 0 72 c-1 111 -18 206 -50 275 -37 79 -133 177 -210 214 -245
117 -532 4 -631 -250 -18 -45 -23 -83 -27 -184 l-4 -128 -2298 0 -2298 0 -4
133 c-3 128 -5 134 -40 210 -96 202 -317 308 -525 252z m189 -312 c16 -10 39
-34 51 -53 22 -35 22 -36 22 -615 0 -562 -1 -581 -20 -613 -29 -48 -73 -72
-131 -72 -62 0 -107 27 -134 79 -19 39 -20 56 -20 606 0 550 1 567 20 606 12
22 35 49 53 59 41 25 118 26 159 3z m5515 -3 c18 -10 41 -37 53 -59 19 -39 20
-56 20 -606 0 -550 -1 -567 -20 -606 -27 -53 -72 -79 -134 -79 -62 0 -109 29
-136 86 -19 39 -20 62 -20 599 0 544 1 560 21 601 11 24 35 52 52 63 42 27
121 28 164 1z m-6057 -892 c0 -167 5 -334 10 -373 25 -179 162 -335 335 -379
246 -65 495 81 561 329 10 37 14 138 14 388 l0 337 2300 0 2300 0 0 -344 c0
-383 4 -413 69 -515 209 -325 708 -258 822 110 17 55 19 95 19 405 l0 344 565
0 c552 0 565 0 622 -21 76 -29 143 -96 172 -172 21 -57 21 -70 21 -622 l0
-565 -4590 0 -4590 0 0 573 0 572 28 60 c38 80 108 140 192 166 14 4 278 8
588 8 l562 1 0 -302z m7810 -4701 c0 -3773 10 -3378 -89 -3478 -38 -38 -72
-61 -105 -72 -46 -16 -356 -17 -4396 -17 -4040 0 -4350 1 -4396 17 -33 11 -67
34 -105 72 -99 100 -89 -295 -89 3478 l0 3323 4590 0 4590 0 0 -3323z"/>
<path d="M1607 5958 c-23 -14 -45 -38 -57 -64 -20 -40 -21 -57 -18 -462 3
-407 4 -421 24 -448 11 -15 33 -37 48 -48 27 -21 38 -21 541 -21 506 0 514 0
542 21 15 12 37 36 48 55 19 33 20 52 20 461 0 417 0 427 -21 455 -11 15 -36
38 -54 51 l-33 22 -501 0 c-496 0 -501 -1 -539 -22z m843 -508 l0 -230 -305 0
-305 0 0 230 0 230 305 0 305 0 0 -230z"/>
<path d="M3452 5963 c-18 -9 -43 -30 -55 -47 -22 -31 -22 -35 -25 -459 -3
-422 -2 -429 19 -466 12 -21 38 -48 59 -60 37 -21 47 -21 532 -21 461 0 496 1
528 19 19 10 45 33 58 51 22 33 22 33 22 464 0 412 -1 432 -20 464 -11 18 -34
41 -52 52 -32 19 -52 20 -533 20 -440 0 -504 -2 -533 -17z m836 -515 l2 -228
-305 0 -305 0 0 230 0 230 303 -2 302 -3 3 -227z"/>
<path d="M5282 5960 c-18 -11 -41 -34 -52 -52 -19 -32 -20 -52 -20 -464 0
-431 0 -431 23 -464 12 -18 38 -41 57 -51 32 -18 67 -19 528 -19 558 0 545 -2
590 78 l23 41 -3 428 c-3 425 -3 428 -25 459 -46 65 -39 64 -590 64 -479 0
-499 -1 -531 -20z m846 -512 l2 -228 -310 0 -310 0 0 223 c0 123 3 227 7 230
4 4 142 6 307 5 l301 -3 3 -227z"/>
<path d="M7120 5958 c-18 -13 -43 -36 -54 -51 -21 -28 -21 -38 -21 -455 0
-409 1 -428 20 -461 11 -19 33 -43 48 -55 28 -21 36 -21 542 -21 503 0 514 0
541 21 15 11 37 33 48 48 20 27 21 41 24 450 l3 422 -23 43 c-45 84 -25 81
-594 81 l-501 0 -33 -22z m840 -508 l0 -230 -305 0 -305 0 0 230 0 230 305 0
305 0 0 -230z"/>
<path d="M1625 4286 c-37 -16 -70 -52 -84 -89 -7 -18 -11 -172 -11 -438 0
-388 1 -412 20 -448 11 -22 35 -48 53 -60 34 -21 44 -21 537 -21 558 0 543 -2
590 67 l25 37 0 425 c0 409 -1 427 -20 461 -12 21 -39 44 -65 58 -44 22 -46
22 -530 22 -382 -1 -491 -4 -515 -14z m825 -526 l0 -230 -305 0 -305 0 0 230
0 230 305 0 305 0 0 -230z"/>
<path d="M3470 4289 c-14 -6 -36 -20 -48 -32 -52 -48 -52 -46 -52 -494 0 -466
0 -464 69 -510 l34 -23 506 0 c487 0 507 1 539 20 18 11 41 34 52 52 19 32 20
52 20 462 0 421 0 429 -22 464 -12 20 -38 42 -62 53 -38 17 -74 19 -526 18
-298 0 -495 -4 -510 -10z m820 -529 l0 -230 -305 0 -305 0 0 230 0 230 305 0
305 0 0 -230z"/>
<path d="M5294 4281 c-24 -11 -50 -33 -62 -53 -22 -35 -22 -43 -22 -464 0
-410 1 -430 20 -462 11 -18 34 -41 52 -52 32 -19 52 -20 539 -20 l506 0 34 23
c69 46 69 44 69 513 0 420 0 421 -22 454 -13 18 -36 43 -51 54 -28 21 -39 21
-525 23 -468 3 -499 2 -538 -16z m834 -518 l-3 -228 -307 -3 -308 -2 0 230 0
230 310 0 310 0 -2 -227z"/>
<path d="M7130 4278 c-26 -14 -53 -37 -65 -58 -19 -34 -20 -52 -20 -460 0
-395 1 -427 18 -455 10 -16 31 -39 45 -50 26 -19 45 -20 542 -23 497 -2 516
-2 547 17 18 11 42 38 53 61 20 39 21 52 18 464 -3 411 -4 425 -24 452 -11 15
-33 37 -48 48 -27 20 -40 21 -524 24 l-497 2 -45 -22z m830 -518 l0 -230 -305
0 -305 0 0 230 0 230 305 0 305 0 0 -230z"/>
<path d="M1598 2585 c-68 -46 -69 -56 -66 -527 3 -403 4 -417 24 -444 11 -15
33 -37 48 -48 27 -21 38 -21 539 -21 l512 0 33 23 c68 49 67 40 67 514 0 417
0 427 -21 455 -11 15 -36 38 -54 51 l-33 22 -506 0 -506 0 -37 -25z m852 -505
l0 -230 -305 0 -305 0 0 230 0 230 305 0 305 0 0 -230z"/>
<path d="M3439 2587 c-69 -46 -69 -44 -69 -513 0 -420 0 -421 23 -454 12 -18
35 -43 50 -54 28 -21 39 -21 528 -24 487 -2 500 -2 539 18 23 12 50 35 60 53
19 30 20 53 20 462 0 411 -1 431 -20 463 -11 18 -34 41 -52 52 -32 19 -52 20
-539 20 l-506 0 -34 -23z m851 -507 l0 -230 -305 0 -305 0 0 230 0 230 305 0
305 0 0 -230z"/>
<path d="M5282 2590 c-18 -11 -41 -34 -52 -52 -19 -32 -20 -52 -20 -462 0
-421 0 -429 22 -464 12 -20 38 -42 62 -53 38 -17 75 -19 525 -19 464 0 486 1
526 20 26 13 49 34 63 59 22 38 22 45 22 457 0 467 0 465 -69 511 l-34 23
-506 0 c-487 0 -507 -1 -539 -20z m846 -512 l2 -228 -310 0 -310 0 0 223 c0
123 3 227 7 230 4 4 142 6 307 5 l301 -3 3 -227z"/>
</g>
</svg>
